<mxfile host="65bd71144e">
    <diagram id="4i5FrUjJHPsOPsDg4fuU" name="Page-1">
        <mxGraphModel dx="776" dy="678" grid="1" gridSize="10" guides="1" tooltips="1" connect="1" arrows="1" fold="1" page="1" pageScale="1" pageWidth="850" pageHeight="1100" math="0" shadow="0">
            <root>
                <mxCell id="0"/>
                <mxCell id="1" parent="0"/>
                <mxCell id="155" value="" style="rounded=0;whiteSpace=wrap;html=1;strokeColor=#F0F0F0;fontSize=12;fillColor=#00CC00;opacity=10;strokeWidth=5;" vertex="1" parent="1">
                    <mxGeometry x="520" y="220" width="200" height="360" as="geometry"/>
                </mxCell>
                <mxCell id="153" value="" style="rounded=0;whiteSpace=wrap;html=1;strokeColor=default;fontSize=12;fillColor=#00CC00;opacity=10;strokeWidth=5;" vertex="1" parent="1">
                    <mxGeometry x="80" y="220" width="220" height="360" as="geometry"/>
                </mxCell>
                <mxCell id="154" value="" style="rounded=0;whiteSpace=wrap;html=1;strokeColor=default;fontSize=12;fillColor=#00CC00;opacity=10;strokeWidth=5;" vertex="1" parent="1">
                    <mxGeometry x="300" y="220" width="220" height="360" as="geometry"/>
                </mxCell>
                <mxCell id="5" style="edgeStyle=none;html=1;exitX=1;exitY=0.5;exitDx=0;exitDy=0;entryX=0;entryY=0.2;entryDx=0;entryDy=0;entryPerimeter=0;" edge="1" parent="1" source="3" target="4">
                    <mxGeometry relative="1" as="geometry"/>
                </mxCell>
                <mxCell id="3" value="&amp;gt;&amp;gt; 1" style="ellipse;whiteSpace=wrap;html=1;aspect=fixed;fillColor=none;" vertex="1" parent="1">
                    <mxGeometry x="100" y="380" width="40" height="40" as="geometry"/>
                </mxCell>
                <mxCell id="21" style="edgeStyle=none;html=1;exitX=1;exitY=0.2;exitDx=0;exitDy=0;entryX=0;entryY=0.5;entryDx=0;entryDy=0;exitPerimeter=0;" edge="1" parent="1" source="4" target="32">
                    <mxGeometry relative="1" as="geometry">
                        <mxPoint x="335" y="400" as="targetPoint"/>
                    </mxGeometry>
                </mxCell>
                <mxCell id="23" style="edgeStyle=orthogonalEdgeStyle;html=1;entryX=0.5;entryY=0;entryDx=0;entryDy=0;startArrow=oval;startFill=1;" edge="1" parent="1" target="22">
                    <mxGeometry relative="1" as="geometry">
                        <mxPoint x="260" y="400" as="sourcePoint"/>
                        <Array as="points">
                            <mxPoint x="260" y="450"/>
                            <mxPoint x="260" y="450"/>
                        </Array>
                    </mxGeometry>
                </mxCell>
                <mxCell id="4" value="EN" style="rounded=0;whiteSpace=wrap;html=1;fillColor=none;verticalAlign=top;points=[[0,0,0,0,0],[0,0.2,0,0,0],[0,0.25,0,0,0],[0,0.5,0,0,0],[0,0.75,0,0,0],[0,0.8,0,0,0],[0,1,0,0,0],[0.25,0,0,0,0],[0.25,1,0,0,0],[0.5,0,0,0,0],[0.5,1,0,0,0],[0.75,0,0,0,0],[0.75,1,0,0,0],[1,0,0,0,0],[1,0.2,0,0,0],[1,0.25,0,0,0],[1,0.5,0,0,0],[1,0.75,0,0,0],[1,0.8,0,0,0],[1,1,0,0,0]];" vertex="1" parent="1">
                    <mxGeometry x="180" y="360" width="40" height="200" as="geometry"/>
                </mxCell>
                <mxCell id="24" style="edgeStyle=none;html=1;exitX=1;exitY=0.8;exitDx=0;exitDy=0;entryX=0;entryY=0.5;entryDx=0;entryDy=0;exitPerimeter=0;" edge="1" parent="1" source="4" target="22">
                    <mxGeometry relative="1" as="geometry">
                        <mxPoint x="215" y="520" as="sourcePoint"/>
                    </mxGeometry>
                </mxCell>
                <mxCell id="10" value="" style="group" vertex="1" connectable="0" parent="1">
                    <mxGeometry x="20" y="380" width="40" height="40" as="geometry"/>
                </mxCell>
                <mxCell id="7" value="" style="rounded=0;whiteSpace=wrap;html=1;fillColor=none;" vertex="1" parent="10">
                    <mxGeometry width="40" height="40" as="geometry"/>
                </mxCell>
                <mxCell id="8" value="" style="endArrow=none;html=1;exitX=0;exitY=1;exitDx=0;exitDy=0;entryX=1;entryY=0;entryDx=0;entryDy=0;" edge="1" parent="10" source="7" target="7">
                    <mxGeometry width="50" height="50" relative="1" as="geometry">
                        <mxPoint x="20" y="-80" as="sourcePoint"/>
                        <mxPoint x="70" y="-130" as="targetPoint"/>
                    </mxGeometry>
                </mxCell>
                <mxCell id="9" value="" style="endArrow=none;html=1;exitX=0;exitY=0;exitDx=0;exitDy=0;entryX=1;entryY=1;entryDx=0;entryDy=0;" edge="1" parent="10" source="7" target="7">
                    <mxGeometry width="50" height="50" relative="1" as="geometry">
                        <mxPoint x="20" y="-80" as="sourcePoint"/>
                        <mxPoint x="70" y="-130" as="targetPoint"/>
                    </mxGeometry>
                </mxCell>
                <mxCell id="11" style="edgeStyle=none;html=1;exitX=1;exitY=0.5;exitDx=0;exitDy=0;entryX=0;entryY=0.5;entryDx=0;entryDy=0;" edge="1" parent="1" source="7" target="3">
                    <mxGeometry relative="1" as="geometry"/>
                </mxCell>
                <mxCell id="16" style="edgeStyle=orthogonalEdgeStyle;html=1;startArrow=oval;startFill=1;" edge="1" parent="1">
                    <mxGeometry relative="1" as="geometry">
                        <mxPoint x="65" y="400" as="sourcePoint"/>
                        <mxPoint x="175" y="520" as="targetPoint"/>
                        <Array as="points">
                            <mxPoint x="70" y="520"/>
                        </Array>
                    </mxGeometry>
                </mxCell>
                <mxCell id="29" style="edgeStyle=none;html=1;exitX=1;exitY=0.5;exitDx=0;exitDy=0;entryX=0;entryY=0.8;entryDx=0;entryDy=0;entryPerimeter=0;" edge="1" parent="1" source="22" target="128">
                    <mxGeometry relative="1" as="geometry">
                        <mxPoint x="415" y="520" as="targetPoint"/>
                    </mxGeometry>
                </mxCell>
                <mxCell id="22" value="^" style="ellipse;whiteSpace=wrap;html=1;aspect=fixed;fillColor=none;" vertex="1" parent="1">
                    <mxGeometry x="240" y="500" width="40" height="40" as="geometry"/>
                </mxCell>
                <mxCell id="31" style="edgeStyle=none;html=1;exitX=1;exitY=0.5;exitDx=0;exitDy=0;entryX=0;entryY=0.2;entryDx=0;entryDy=0;entryPerimeter=0;" edge="1" parent="1" source="32" target="128">
                    <mxGeometry relative="1" as="geometry">
                        <mxPoint x="415" y="400" as="targetPoint"/>
                    </mxGeometry>
                </mxCell>
                <mxCell id="32" value="&amp;gt;&amp;gt; 1" style="ellipse;whiteSpace=wrap;html=1;aspect=fixed;fillColor=none;" vertex="1" parent="1">
                    <mxGeometry x="320" y="380" width="40" height="40" as="geometry"/>
                </mxCell>
                <mxCell id="33" style="edgeStyle=none;html=1;exitX=1;exitY=0.2;exitDx=0;exitDy=0;entryX=0;entryY=0.5;entryDx=0;entryDy=0;exitPerimeter=0;" edge="1" parent="1" source="128" target="59">
                    <mxGeometry relative="1" as="geometry">
                        <mxPoint x="455" y="400" as="sourcePoint"/>
                        <mxPoint x="655" y="400" as="targetPoint"/>
                    </mxGeometry>
                </mxCell>
                <mxCell id="34" style="edgeStyle=orthogonalEdgeStyle;html=1;entryX=0.5;entryY=0;entryDx=0;entryDy=0;startArrow=oval;startFill=1;" edge="1" parent="1" target="53">
                    <mxGeometry relative="1" as="geometry">
                        <mxPoint x="460" y="400" as="sourcePoint"/>
                        <Array as="points">
                            <mxPoint x="460" y="400"/>
                        </Array>
                    </mxGeometry>
                </mxCell>
                <mxCell id="36" style="edgeStyle=none;html=1;exitX=1;exitY=0.8;exitDx=0;exitDy=0;entryX=0;entryY=0.5;entryDx=0;entryDy=0;exitPerimeter=0;" edge="1" parent="1" source="128" target="53">
                    <mxGeometry relative="1" as="geometry">
                        <mxPoint x="455" y="520" as="sourcePoint"/>
                    </mxGeometry>
                </mxCell>
                <mxCell id="52" style="edgeStyle=none;html=1;exitX=1;exitY=0.5;exitDx=0;exitDy=0;entryX=0;entryY=0.8;entryDx=0;entryDy=0;entryPerimeter=0;" edge="1" parent="1" source="53" target="129">
                    <mxGeometry relative="1" as="geometry">
                        <mxPoint x="655" y="520" as="targetPoint"/>
                    </mxGeometry>
                </mxCell>
                <mxCell id="53" value="^" style="ellipse;whiteSpace=wrap;html=1;aspect=fixed;fillColor=none;" vertex="1" parent="1">
                    <mxGeometry x="440" y="500" width="40" height="40" as="geometry"/>
                </mxCell>
                <mxCell id="58" style="edgeStyle=none;html=1;exitX=1;exitY=0.5;exitDx=0;exitDy=0;entryX=0;entryY=0.2;entryDx=0;entryDy=0;entryPerimeter=0;" edge="1" parent="1" source="59" target="129">
                    <mxGeometry relative="1" as="geometry">
                        <mxPoint x="675" y="400" as="sourcePoint"/>
                        <mxPoint x="835" y="400" as="targetPoint"/>
                    </mxGeometry>
                </mxCell>
                <mxCell id="59" value="&amp;gt;&amp;gt; 1" style="ellipse;whiteSpace=wrap;html=1;aspect=fixed;fillColor=none;" vertex="1" parent="1">
                    <mxGeometry x="540" y="380" width="40" height="40" as="geometry"/>
                </mxCell>
                <mxCell id="61" style="edgeStyle=orthogonalEdgeStyle;html=1;entryX=0.5;entryY=0;entryDx=0;entryDy=0;startArrow=none;startFill=0;rounded=1;exitX=1;exitY=0.2;exitDx=0;exitDy=0;exitPerimeter=0;" edge="1" parent="1" target="80" source="129">
                    <mxGeometry relative="1" as="geometry">
                        <mxPoint x="675" y="400" as="sourcePoint"/>
                        <Array as="points">
                            <mxPoint x="680" y="400"/>
                        </Array>
                    </mxGeometry>
                </mxCell>
                <mxCell id="63" style="edgeStyle=none;html=1;exitX=1;exitY=0.8;exitDx=0;exitDy=0;entryX=0;entryY=0.5;entryDx=0;entryDy=0;exitPerimeter=0;" edge="1" parent="1" source="129" target="80">
                    <mxGeometry relative="1" as="geometry">
                        <mxPoint x="875" y="520" as="sourcePoint"/>
                    </mxGeometry>
                </mxCell>
                <mxCell id="116" style="edgeStyle=orthogonalEdgeStyle;rounded=1;html=1;exitX=1;exitY=0.5;exitDx=0;exitDy=0;entryX=0;entryY=0.8;entryDx=0;entryDy=0;fontSize=12;startArrow=none;startFill=0;entryPerimeter=0;" edge="1" parent="1" source="80" target="148">
                    <mxGeometry relative="1" as="geometry">
                        <mxPoint x="835" y="460" as="targetPoint"/>
                        <Array as="points"/>
                    </mxGeometry>
                </mxCell>
                <mxCell id="80" value="^" style="ellipse;whiteSpace=wrap;html=1;aspect=fixed;fillColor=none;" vertex="1" parent="1">
                    <mxGeometry x="660" y="500" width="40" height="40" as="geometry"/>
                </mxCell>
                <mxCell id="117" style="edgeStyle=orthogonalEdgeStyle;rounded=1;html=1;exitX=1;exitY=0.5;exitDx=0;exitDy=0;entryX=0;entryY=0.5;entryDx=0;entryDy=0;fontSize=12;startArrow=none;startFill=0;exitPerimeter=0;" edge="1" parent="1" source="148" target="157">
                    <mxGeometry relative="1" as="geometry">
                        <mxPoint x="875" y="460" as="sourcePoint"/>
                        <mxPoint x="895" y="459.9999999999998" as="targetPoint"/>
                    </mxGeometry>
                </mxCell>
                <mxCell id="131" style="edgeStyle=orthogonalEdgeStyle;rounded=1;html=1;exitX=1;exitY=0.5;exitDx=0;exitDy=0;entryX=0;entryY=0.5;entryDx=0;entryDy=0;fontSize=12;startArrow=none;startFill=0;" edge="1" parent="1" source="118" target="130">
                    <mxGeometry relative="1" as="geometry"/>
                </mxCell>
                <mxCell id="118" value="RST" style="rounded=0;whiteSpace=wrap;html=1;fillColor=none;verticalAlign=top;" vertex="1" parent="1">
                    <mxGeometry x="180" y="240" width="40" height="80" as="geometry"/>
                </mxCell>
                <mxCell id="119" value="" style="group" vertex="1" connectable="0" parent="1">
                    <mxGeometry x="20" y="260" width="40" height="40" as="geometry"/>
                </mxCell>
                <mxCell id="120" value="" style="rounded=0;whiteSpace=wrap;html=1;fillColor=none;" vertex="1" parent="119">
                    <mxGeometry width="40" height="40" as="geometry"/>
                </mxCell>
                <mxCell id="121" value="" style="endArrow=none;html=1;exitX=0;exitY=1;exitDx=0;exitDy=0;entryX=1;entryY=0;entryDx=0;entryDy=0;" edge="1" parent="119" source="120" target="120">
                    <mxGeometry width="50" height="50" relative="1" as="geometry">
                        <mxPoint x="20" y="-80" as="sourcePoint"/>
                        <mxPoint x="70" y="-130" as="targetPoint"/>
                    </mxGeometry>
                </mxCell>
                <mxCell id="122" value="" style="endArrow=none;html=1;exitX=0;exitY=0;exitDx=0;exitDy=0;entryX=1;entryY=1;entryDx=0;entryDy=0;" edge="1" parent="119" source="120" target="120">
                    <mxGeometry width="50" height="50" relative="1" as="geometry">
                        <mxPoint x="20" y="-80" as="sourcePoint"/>
                        <mxPoint x="70" y="-130" as="targetPoint"/>
                    </mxGeometry>
                </mxCell>
                <mxCell id="123" style="edgeStyle=orthogonalEdgeStyle;rounded=1;html=1;exitX=1;exitY=0.5;exitDx=0;exitDy=0;entryX=0;entryY=0.5;entryDx=0;entryDy=0;fontSize=12;startArrow=none;startFill=0;" edge="1" parent="1" source="120" target="118">
                    <mxGeometry relative="1" as="geometry"/>
                </mxCell>
                <mxCell id="127" style="edgeStyle=orthogonalEdgeStyle;rounded=1;html=1;entryX=0.5;entryY=0;entryDx=0;entryDy=0;fontSize=12;startArrow=oval;startFill=1;" edge="1" parent="1" target="4">
                    <mxGeometry relative="1" as="geometry">
                        <mxPoint x="140" y="280" as="sourcePoint"/>
                        <Array as="points">
                            <mxPoint x="140" y="340"/>
                            <mxPoint x="200" y="340"/>
                        </Array>
                    </mxGeometry>
                </mxCell>
                <mxCell id="128" value="EN" style="rounded=0;whiteSpace=wrap;html=1;fillColor=none;verticalAlign=top;points=[[0,0,0,0,0],[0,0.2,0,0,0],[0,0.25,0,0,0],[0,0.5,0,0,0],[0,0.75,0,0,0],[0,0.8,0,0,0],[0,1,0,0,0],[0.25,0,0,0,0],[0.25,1,0,0,0],[0.5,0,0,0,0],[0.5,1,0,0,0],[0.75,0,0,0,0],[0.75,1,0,0,0],[1,0,0,0,0],[1,0.2,0,0,0],[1,0.25,0,0,0],[1,0.5,0,0,0],[1,0.75,0,0,0],[1,0.8,0,0,0],[1,1,0,0,0]];" vertex="1" parent="1">
                    <mxGeometry x="380" y="360" width="40" height="200" as="geometry"/>
                </mxCell>
                <mxCell id="129" value="EN" style="rounded=0;whiteSpace=wrap;html=1;fillColor=none;verticalAlign=top;points=[[0,0,0,0,0],[0,0.2,0,0,0],[0,0.25,0,0,0],[0,0.5,0,0,0],[0,0.75,0,0,0],[0,0.8,0,0,0],[0,1,0,0,0],[0.25,0,0,0,0],[0.25,1,0,0,0],[0.5,0,0,0,0],[0.5,1,0,0,0],[0.75,0,0,0,0],[0.75,1,0,0,0],[1,0,0,0,0],[1,0.2,0,0,0],[1,0.25,0,0,0],[1,0.5,0,0,0],[1,0.75,0,0,0],[1,0.8,0,0,0],[1,1,0,0,0]];" vertex="1" parent="1">
                    <mxGeometry x="600" y="360" width="40" height="200" as="geometry"/>
                </mxCell>
                <mxCell id="133" style="edgeStyle=orthogonalEdgeStyle;rounded=1;html=1;exitX=1;exitY=0.5;exitDx=0;exitDy=0;entryX=0;entryY=0.5;entryDx=0;entryDy=0;fontSize=12;startArrow=none;startFill=0;" edge="1" parent="1" source="130" target="132">
                    <mxGeometry relative="1" as="geometry"/>
                </mxCell>
                <mxCell id="130" value="RST" style="rounded=0;whiteSpace=wrap;html=1;fillColor=none;verticalAlign=top;" vertex="1" parent="1">
                    <mxGeometry x="380" y="240" width="40" height="80" as="geometry"/>
                </mxCell>
                <mxCell id="134" style="edgeStyle=orthogonalEdgeStyle;rounded=1;html=1;exitX=1;exitY=0.5;exitDx=0;exitDy=0;fontSize=12;startArrow=none;startFill=0;entryX=0;entryY=0.5;entryDx=0;entryDy=0;" edge="1" parent="1" source="132" target="139">
                    <mxGeometry relative="1" as="geometry">
                        <mxPoint x="1075" y="279.9565217391305" as="targetPoint"/>
                    </mxGeometry>
                </mxCell>
                <mxCell id="132" value="RST" style="rounded=0;whiteSpace=wrap;html=1;fillColor=none;verticalAlign=top;" vertex="1" parent="1">
                    <mxGeometry x="600" y="240" width="40" height="80" as="geometry"/>
                </mxCell>
                <mxCell id="140" style="edgeStyle=orthogonalEdgeStyle;rounded=1;html=1;exitX=1;exitY=0.5;exitDx=0;exitDy=0;entryX=0;entryY=0.5;entryDx=0;entryDy=0;fontSize=12;startArrow=none;startFill=0;" edge="1" parent="1" source="139" target="161">
                    <mxGeometry relative="1" as="geometry">
                        <mxPoint x="895" y="280" as="targetPoint"/>
                    </mxGeometry>
                </mxCell>
                <mxCell id="139" value="RST" style="rounded=0;whiteSpace=wrap;html=1;fillColor=none;verticalAlign=top;" vertex="1" parent="1">
                    <mxGeometry x="740" y="240" width="40" height="80" as="geometry"/>
                </mxCell>
                <mxCell id="141" style="edgeStyle=orthogonalEdgeStyle;rounded=1;html=1;entryX=0.5;entryY=0;entryDx=0;entryDy=0;fontSize=12;startArrow=oval;startFill=1;entryPerimeter=0;" edge="1" parent="1" target="128">
                    <mxGeometry relative="1" as="geometry">
                        <mxPoint x="340" y="280" as="sourcePoint"/>
                        <mxPoint x="395" y="360" as="targetPoint"/>
                        <Array as="points">
                            <mxPoint x="340" y="340"/>
                            <mxPoint x="400" y="340"/>
                        </Array>
                    </mxGeometry>
                </mxCell>
                <mxCell id="142" style="edgeStyle=orthogonalEdgeStyle;rounded=1;html=1;fontSize=12;startArrow=oval;startFill=1;entryX=0.5;entryY=0;entryDx=0;entryDy=0;entryPerimeter=0;" edge="1" parent="1" target="129">
                    <mxGeometry relative="1" as="geometry">
                        <mxPoint x="560" y="280" as="sourcePoint"/>
                        <mxPoint x="855" y="360" as="targetPoint"/>
                        <Array as="points">
                            <mxPoint x="560" y="340"/>
                            <mxPoint x="620" y="340"/>
                        </Array>
                    </mxGeometry>
                </mxCell>
                <mxCell id="143" style="edgeStyle=orthogonalEdgeStyle;rounded=1;html=1;fontSize=12;startArrow=oval;startFill=1;entryX=0.5;entryY=0;entryDx=0;entryDy=0;entryPerimeter=0;" edge="1" parent="1" target="148">
                    <mxGeometry relative="1" as="geometry">
                        <mxPoint x="700" y="280" as="sourcePoint"/>
                        <mxPoint x="855" y="360" as="targetPoint"/>
                        <Array as="points">
                            <mxPoint x="700" y="340"/>
                            <mxPoint x="760" y="340"/>
                        </Array>
                    </mxGeometry>
                </mxCell>
                <mxCell id="148" value="EN" style="rounded=0;whiteSpace=wrap;html=1;fillColor=none;verticalAlign=top;points=[[0,0,0,0,0],[0,0.2,0,0,0],[0,0.25,0,0,0],[0,0.5,0,0,0],[0,0.75,0,0,0],[0,0.8,0,0,0],[0,1,0,0,0],[0.25,0,0,0,0],[0.25,1,0,0,0],[0.5,0,0,0,0],[0.5,1,0,0,0],[0.75,0,0,0,0],[0.75,1,0,0,0],[1,0,0,0,0],[1,0.2,0,0,0],[1,0.25,0,0,0],[1,0.5,0,0,0],[1,0.75,0,0,0],[1,0.8,0,0,0],[1,1,0,0,0]];" vertex="1" parent="1">
                    <mxGeometry x="740" y="360" width="40" height="200" as="geometry"/>
                </mxCell>
                <mxCell id="156" value="" style="group" vertex="1" connectable="0" parent="1">
                    <mxGeometry x="800" y="440" width="40" height="40" as="geometry"/>
                </mxCell>
                <mxCell id="157" value="" style="rounded=0;whiteSpace=wrap;html=1;fillColor=none;" vertex="1" parent="156">
                    <mxGeometry width="40" height="40" as="geometry"/>
                </mxCell>
                <mxCell id="158" value="" style="endArrow=none;html=1;exitX=0;exitY=1;exitDx=0;exitDy=0;entryX=1;entryY=0;entryDx=0;entryDy=0;" edge="1" parent="156" source="157" target="157">
                    <mxGeometry width="50" height="50" relative="1" as="geometry">
                        <mxPoint x="20" y="-80" as="sourcePoint"/>
                        <mxPoint x="70" y="-130" as="targetPoint"/>
                    </mxGeometry>
                </mxCell>
                <mxCell id="159" value="" style="endArrow=none;html=1;exitX=0;exitY=0;exitDx=0;exitDy=0;entryX=1;entryY=1;entryDx=0;entryDy=0;" edge="1" parent="156" source="157" target="157">
                    <mxGeometry width="50" height="50" relative="1" as="geometry">
                        <mxPoint x="20" y="-80" as="sourcePoint"/>
                        <mxPoint x="70" y="-130" as="targetPoint"/>
                    </mxGeometry>
                </mxCell>
                <mxCell id="160" value="" style="group" vertex="1" connectable="0" parent="1">
                    <mxGeometry x="800" y="260" width="40" height="40" as="geometry"/>
                </mxCell>
                <mxCell id="161" value="" style="rounded=0;whiteSpace=wrap;html=1;fillColor=none;" vertex="1" parent="160">
                    <mxGeometry width="40" height="40" as="geometry"/>
                </mxCell>
                <mxCell id="162" value="" style="endArrow=none;html=1;exitX=0;exitY=1;exitDx=0;exitDy=0;entryX=1;entryY=0;entryDx=0;entryDy=0;" edge="1" parent="160" source="161" target="161">
                    <mxGeometry width="50" height="50" relative="1" as="geometry">
                        <mxPoint x="20" y="-80" as="sourcePoint"/>
                        <mxPoint x="70" y="-130" as="targetPoint"/>
                    </mxGeometry>
                </mxCell>
                <mxCell id="163" value="" style="endArrow=none;html=1;exitX=0;exitY=0;exitDx=0;exitDy=0;entryX=1;entryY=1;entryDx=0;entryDy=0;" edge="1" parent="160" source="161" target="161">
                    <mxGeometry width="50" height="50" relative="1" as="geometry">
                        <mxPoint x="20" y="-80" as="sourcePoint"/>
                        <mxPoint x="70" y="-130" as="targetPoint"/>
                    </mxGeometry>
                </mxCell>
                <mxCell id="167" value="" style="shape=curlyBracket;whiteSpace=wrap;html=1;rounded=1;labelPosition=left;verticalLabelPosition=middle;align=right;verticalAlign=middle;strokeColor=#FFFFFF;strokeWidth=1;fontSize=12;fillColor=none;rotation=-90;horizontal=1;" vertex="1" parent="1">
                    <mxGeometry x="390" y="270" width="20" height="640" as="geometry"/>
                </mxCell>
                <mxCell id="170" value="log&lt;sub style=&quot;font-size: 16px;&quot;&gt;2&lt;/sub&gt;(M) -1" style="text;html=1;strokeColor=none;fillColor=none;align=center;verticalAlign=middle;whiteSpace=wrap;rounded=0;strokeWidth=1;fontSize=16;" vertex="1" parent="1">
                    <mxGeometry x="340" y="600" width="120" height="40" as="geometry"/>
                </mxCell>
            </root>
        </mxGraphModel>
    </diagram>
</mxfile>